<?xml version="1.0" encoding="utf-8"?>
<!-- Generator: Adobe Illustrator 19.2.1, SVG Export Plug-In . SVG Version: 6.00 Build 0)  -->
<svg version="1.1" xmlns="http://www.w3.org/2000/svg" xmlns:xlink="http://www.w3.org/1999/xlink" x="0px" y="0px"
	 viewBox="0 0 50 50" style="enable-background:new 0 0 50 50;" xml:space="preserve">
<style type="text/css">
	.st0{display:none;}
	.st1{display:inline;opacity:0.6;}
	.st2{fill:none;stroke:#000000;stroke-width:0.1;stroke-miterlimit:10;}
	.st3{display:inline;}
	.st4{fill:none;stroke:#000000;stroke-width:0.2;stroke-miterlimit:10;}
	.st5{fill:none;stroke:#000000;stroke-width:5.000000e-02;stroke-miterlimit:10;}
	.st6{fill:none;}
	.st7{fill:#FFFFFF;}
	.st8{fill:none;stroke:#000000;stroke-width:2;stroke-linecap:round;stroke-miterlimit:10;}
	.st9{fill:none;stroke:#000000;stroke-width:2;stroke-linejoin:round;stroke-miterlimit:10;}
	.st10{fill:none;stroke:#000000;stroke-width:1.8;stroke-linejoin:round;stroke-miterlimit:10;}
	.st11{fill:none;stroke:#000000;stroke-width:2;stroke-miterlimit:10;}
	.st12{fill:none;stroke:#000000;stroke-miterlimit:10;}
	.st13{fill:#FF0000;}
</style>
<g id="grid" class="st0">
	<g class="st1">
		<rect y="0" class="st2" width="50" height="50"/>
		<line class="st2" x1="0" y1="41.7" x2="50" y2="41.7"/>
		<line class="st2" x1="0" y1="33.3" x2="50" y2="33.3"/>
		<line class="st2" x1="0" y1="25" x2="50" y2="25"/>
		<line class="st2" x1="0" y1="16.7" x2="50" y2="16.7"/>
		<line class="st2" x1="0" y1="8.3" x2="50" y2="8.3"/>
		<line class="st2" x1="41.7" y1="0" x2="41.7" y2="50"/>
		<line class="st2" x1="33.3" y1="0" x2="33.3" y2="50"/>
		<line class="st2" x1="25" y1="0" x2="25" y2="50"/>
		<line class="st2" x1="16.7" y1="0" x2="16.7" y2="50"/>
		<line class="st2" x1="8.3" y1="0" x2="8.3" y2="50"/>
	</g>
</g>
<g id="grid2" class="st0">
	<g class="st3">
		<rect x="9.3" y="9.3" class="st4" width="31.4" height="31.4"/>
		<line class="st4" x1="9.3" y1="35.5" x2="40.7" y2="35.5"/>
		<line class="st4" x1="9.3" y1="30.2" x2="40.7" y2="30.2"/>
		<line class="st4" x1="9.3" y1="25" x2="40.7" y2="25"/>
		<line class="st4" x1="9.3" y1="19.8" x2="40.7" y2="19.8"/>
		<line class="st4" x1="9.3" y1="14.5" x2="40.7" y2="14.5"/>
		<line class="st4" x1="35.5" y1="9.3" x2="35.5" y2="40.7"/>
		<line class="st4" x1="30.2" y1="9.3" x2="30.2" y2="40.7"/>
		<line class="st4" x1="25" y1="9.3" x2="25" y2="40.7"/>
		<line class="st4" x1="19.8" y1="9.3" x2="19.8" y2="40.7"/>
		<line class="st4" x1="14.5" y1="9.3" x2="14.5" y2="40.7"/>
	</g>
</g>
<g id="weather">
</g>
<g id="appliances">
</g>
<g id="history">
</g>
<g id="mode">
	<polygon points="36,7.6 37.9,7.6 37.9,13 37.9,13 39.7,14.8 39.7,14.8 39.7,5.8 34.2,5.8 34.2,9.3 36,11.1 	"/>
	<path d="M46.8,24.2l-21-21c-0.4-0.4-1.2-0.4-1.6,0l-21,21c-0.4,0.4-0.4,1.2,0,1.6c0.4,0.4,1.2,0.4,1.6,0l3.4-3.4v18.3
		c0,0.6,0.5,1,1,1h9.4h12.6h9.4c0.6,0,1-0.5,1-1V22.4l3.4,3.4c0.2,0.2,0.5,0.3,0.8,0.3s0.6-0.1,0.8-0.3
		C47.2,25.4,47.2,24.6,46.8,24.2z M20.8,39.6V25h8.4v14.7H20.8z M39.6,39.6h-8.4V22.9H18.7v16.8h-8.4V20.3L25,5.7l14.6,14.6V39.6z"
		/>
</g>
</svg>
