<?xml version="1.0" encoding="utf-8"?>
<!-- Generator: Adobe Illustrator 19.2.1, SVG Export Plug-In . SVG Version: 6.00 Build 0)  -->
<svg version="1.1" id="Layer_1" xmlns:x="&ns_extend;" xmlns:i="&ns_ai;" xmlns:graph="&ns_graphs;"
	 xmlns="http://www.w3.org/2000/svg" xmlns:xlink="http://www.w3.org/1999/xlink" x="0px" y="0px" viewBox="0 0 1228 716"
	 style="enable-background:new 0 0 1228 716;" xml:space="preserve">
<metadata>
	<sfw  xmlns="&ns_sfw;">
		<slices></slices>
		<sliceSourceBounds  bottomLeftOrigin="true" height="716" width="1228" x="-90" y="-755"></sliceSourceBounds>
	</sfw>
</metadata>
<g>
	<path d="M0,0v716h1228V0H0z M494.4,36l-50,107.6L394.4,36H494.4z M125,89h13v163h-13V89z M138,572h-13V414h13V572z M193,574v-0.5
		V520h39.3c36.6,0,37.5,51,2.7,54H193z M193,466v-53.4v-0.7V411h42c33,0,34,55,0,55H193z M619.7,627l15.5-53h78.1l15.5,53H619.7z
		 M650.6,520l23.5-81.7l23.5,81.7H650.6z M863,627V480.2L917.8,627H863z M1024,627h-53.7l53.7-145.9V627z M1079,358h-8.2h-46.4h-8
		l-72.4,197.8L871.6,358h-8.2h-8.3H810v269h-27.7l-81.1-269h-3.9h-46.2h-3.9L566,627h-27v-53H419v-54h110v-55H419v-54h120v-53H351
		v53h13v163h-13v53H235.1c83.1-4,101.8-100.1,51.9-134.5C336.9,458,318.2,362,235.1,358H193h-12.9H125v-53h188v-53H193v-54h113v-55
		H193V89h120V36h23.8L417,196.3V252h-13v53h81v-53h-13v-56.3L552,36h24v53h13v163h-13v53h188v-53H643v-54h112v-55H643V89h121V36h315
		V358z"/>
</g>
</svg>
