<?xml version="1.0" encoding="utf-8"?>
<!-- Generator: Adobe Illustrator 19.2.1, SVG Export Plug-In . SVG Version: 6.00 Build 0)  -->
<svg version="1.1" id="Layer_1" xmlns:x="&ns_extend;" xmlns:i="&ns_ai;" xmlns:graph="&ns_graphs;"
	 xmlns="http://www.w3.org/2000/svg" xmlns:xlink="http://www.w3.org/1999/xlink" x="0px" y="0px" viewBox="0 0 128.5 128.5"
	 style="enable-background:new 0 0 128.5 128.5;" xml:space="preserve">
<style type="text/css">
	.st0{fill:#FFFFFF;}
	.st1{fill:none;stroke:#000000;stroke-miterlimit:10;}
</style>
<metadata>
	<sfw  xmlns="&ns_sfw;">
		<slices></slices>
		<sliceSourceBounds  bottomLeftOrigin="true" height="716" width="1980.7" x="-90" y="-755"></sliceSourceBounds>
		<optimizationSettings>
			<targetSettings  fileFormat="PNG24Format" targetSettingsID="0">
				<PNG24Format  filtered="false" interlaced="false" matteColor="#FFFFFF" noMatteColor="false" transparency="false">
					</PNG24Format>
			</targetSettings>
		</optimizationSettings>
	</sfw>
</metadata>
<g>
	<path class="st0" d="M-1634.2-250.7v716h1228v-716H-1634.2z M-1139.8-214.7l-50,107.6l-50-107.6H-1139.8z M-1509.2-161.7h13v163
		h-13V-161.7z M-1496.2,321.3h-13v-158h13V321.3z M-1441.2,323.3v-0.5v-53.5h39.3c36.6,0,37.5,51,2.7,54H-1441.2z M-1441.2,215.3
		V162v-0.7v-0.9h42c33,0,34,55,0,55H-1441.2z M-1014.6,376.3l15.5-53h78.1l15.5,53H-1014.6z M-983.6,269.3l23.5-81.7l23.5,81.7
		H-983.6z M-771.2,376.3V229.5l54.8,146.8H-771.2z M-610.2,376.3H-664l53.7-145.9V376.3z M-555.2,107.3h-8.2h-46.4h-8l-72.4,197.8
		l-72.4-197.8h-8.2h-8.3h-45.1v269h-27.7l-81.1-269h-3.9h-46.2h-3.9l-81.1,269h-27v-53h-120v-54h110v-55h-110v-54h120v-53h-188v53
		h13v163h-13v53h-115.9c83.1-4,101.8-100.1,51.9-134.5c49.9-34.5,31.2-130.5-51.9-134.5h-42.1h-12.9h-55.1v-53h188v-53h-120v-54h113
		v-55h-113v-54h120v-53h23.8l80.2,160.3V1.3h-13v53h81v-53h-13V-55l80-159.7h24v53h13v163h-13v53h188v-53h-121v-54h112v-55h-112v-54
		h121v-53h315V107.3z"/>
</g>
<rect x="218" y="0.2" class="st1" width="128" height="128"/>
<g>
	<g>
		<path d="M8.3,5c17.1,0,59.7,2.8,86,29.1c17.3,17.3,24.2,41.7,27,59.1c2.1,13.1,2.2,24.3,2.1,30.2c-1,0-2.1,0-3.3,0
			c-17.1,0-59.7-2.8-86-29.1C16.9,77.1,9.9,52.7,7.1,35.3C5,22.2,4.9,10.9,5,5C6,5,7.1,5,8.3,5L8.3,5 M8.3,0C3.3,0,0.2,0.2,0.2,0.2
			s-5,62.3,30.4,97.6c27.6,27.6,71.5,30.6,89.5,30.6c5.1,0,8.1-0.2,8.1-0.2s5-62.3-30.4-97.6C70.3,3,26.3,0,8.3,0L8.3,0z"/>
	</g>
	<g>
		<path d="M64.2,21.7c11.4,0,22.1,4.4,30.1,12.5c16.6,16.6,16.6,43.6,0,60.2c-8,8-18.7,12.5-30.1,12.5c-11.4,0-22.1-4.4-30.1-12.5
			c-16.6-16.6-16.6-43.6,0-60.2C42.2,26.1,52.9,21.7,64.2,21.7 M64.2,16.7c-12.2,0-24.3,4.6-33.6,13.9C12,49.2,12,79.3,30.6,97.9
			c9.3,9.3,21.5,13.9,33.6,13.9s24.3-4.6,33.6-13.9c18.6-18.6,18.6-48.7,0-67.3C88.6,21.3,76.4,16.7,64.2,16.7L64.2,16.7z"/>
	</g>
	<path d="M90.6,37.8c-14.6-14.6-38.2-14.6-52.8,0s-14.6,38.2,0,52.8s38.2,14.6,52.8,0C105.2,76.1,105.2,52.4,90.6,37.8z M79.6,79.6
		c-8.5,8.5-22.2,8.5-30.7,0s-8.5-22.2,0-30.7s22.2-8.5,30.7,0S88,71.1,79.6,79.6z"/>
	<rect x="63" y="45" width="2.5" height="15.9"/>
	<rect x="55" y="48.3" transform="matrix(0.7071 -0.7071 0.7071 0.7071 -23.3132 56.2829)" width="2.5" height="15.9"/>
	<rect x="51.7" y="56.3" transform="matrix(4.521367e-11 -1 1 4.521367e-11 -11.2546 117.2277)" width="2.5" height="15.9"/>
	<rect x="55" y="64.3" transform="matrix(-0.7071 -0.7071 0.7071 -0.7071 45.0283 163.0501)" width="2.5" height="15.9"/>
	<rect x="63" y="67.6" transform="matrix(-1 -8.969726e-11 8.969726e-11 -1 128.4823 150.9916)" width="2.5" height="15.9"/>
	<rect x="71" y="64.3" transform="matrix(-0.7071 0.7071 -0.7071 -0.7071 174.3047 72.1994)" width="2.5" height="15.9"/>
	<rect x="74.2" y="56.3" transform="matrix(-1.341808e-10 1 -1 -1.341808e-10 139.7369 -11.2546)" width="2.5" height="15.9"/>
	<rect x="71" y="48.3" transform="matrix(0.7071 0.7071 -0.7071 0.7071 60.9447 -34.5678)" width="2.5" height="15.9"/>
	<rect x="58.7" y="45.9" transform="matrix(0.9239 -0.3827 0.3827 0.9239 -16.0427 27.0344)" width="2.5" height="15.9"/>
	<rect x="52.6" y="52" transform="matrix(0.3827 -0.9239 0.9239 0.3827 -22.1337 86.743)" width="2.5" height="15.9"/>
	<rect x="52.6" y="60.6" transform="matrix(-0.3827 -0.9239 0.9239 -0.3827 11.1179 144.525)" width="2.5" height="15.9"/>
	<rect x="58.7" y="66.7" transform="matrix(-0.9239 -0.3827 0.3827 -0.9239 86.743 166.5324)" width="2.5" height="15.9"/>
	<rect x="67.3" y="66.7" transform="matrix(-0.9239 0.3827 -0.3827 -0.9239 160.4414 117.3644)" width="2.5" height="15.9"/>
	<rect x="73.4" y="60.6" transform="matrix(-0.3827 0.9239 -0.9239 -0.3827 166.5324 25.8229)" width="2.5" height="15.9"/>
	<rect x="73.4" y="52" transform="matrix(0.3827 0.9239 -0.9239 0.3827 101.4479 -31.9591)" width="2.5" height="15.9"/>
	<rect x="67.3" y="45.9" transform="matrix(0.9239 0.3827 -0.3827 0.9239 25.8228 -22.1336)" width="2.5" height="15.9"/>
</g>
</svg>
